STARTFONT 2.1
FONT -ibm-courier-bold-o-normal--10-100-100-100-m-78-iso8859-2
SIZE 10 100 100
FONTBOUNDINGBOX 13 15 -1 -2
COMMENT $Header: courBO10.bdf,v 1.1 96/01/22 23:46:53 peterlin Exp $
COMMENT 
COMMENT Copyright International Business Machines,Corp. 1991
COMMENT IBM Courier is a Trademark of the IBM Corporation.
COMMENT 
COMMENT Automatic rendering from Adobe Type 1 outline:
COMMENT Primoz Peterlin <primoz.peterlin@biofiz.mf.uni-lj.si>
COMMENT courbi.pfa rendered at 11.000000 points
COMMENT Checksum eb69a063
STARTPROPERTIES 3
FONT_ASCENT 12
FONT_DESCENT 2
DEFAULT_CHAR 32
ENDPROPERTIES
CHARS 191
STARTCHAR space
ENCODING 32
SWIDTH 586 0
DWIDTH 9 0
BBX 0 0 0 1
BITMAP
ENDCHAR
STARTCHAR exclam
ENCODING 33
SWIDTH 586 0
DWIDTH 9 0
BBX 4 9 3 1
BITMAP
30
30
20
20
60
60
00
60
e0
ENDCHAR
STARTCHAR quotedbl
ENCODING 34
SWIDTH 586 0
DWIDTH 9 0
BBX 6 5 3 5
BITMAP
6c
48
d8
d8
d8
ENDCHAR
STARTCHAR numbersign
ENCODING 35
SWIDTH 586 0
DWIDTH 9 0
BBX 9 11 1 0
BITMAP
1900
1100
1300
7f80
3200
2200
2600
ff00
6400
4400
4c00
ENDCHAR
STARTCHAR dollar
ENCODING 36
SWIDTH 586 0
DWIDTH 9 0
BBX 8 12 1 -1
BITMAP
04
0d
3f
6a
68
1c
0e
7e
76
f8
30
30
ENDCHAR
STARTCHAR percent
ENCODING 37
SWIDTH 586 0
DWIDTH 9 0
BBX 9 9 1 1
BITMAP
7800
cc00
c800
7700
3800
c700
1980
1980
0e00
ENDCHAR
STARTCHAR ampersand
ENCODING 38
SWIDTH 586 0
DWIDTH 9 0
BBX 7 8 1 1
BITMAP
1e
32
30
32
6e
cc
cc
76
ENDCHAR
STARTCHAR quoteright
ENCODING 39
SWIDTH 586 0
DWIDTH 9 0
BBX 4 4 3 6
BITMAP
30
60
60
c0
ENDCHAR
STARTCHAR parenleft
ENCODING 40
SWIDTH 586 0
DWIDTH 9 0
BBX 5 11 4 0
BITMAP
18
10
20
60
40
c0
c0
c0
c0
c0
60
ENDCHAR
STARTCHAR parenright
ENCODING 41
SWIDTH 586 0
DWIDTH 9 0
BBX 5 11 1 0
BITMAP
10
18
18
18
18
18
18
30
30
20
40
ENDCHAR
STARTCHAR asterisk
ENCODING 42
SWIDTH 586 0
DWIDTH 9 0
BBX 6 6 3 4
BITMAP
10
54
fc
30
78
50
ENDCHAR
STARTCHAR plus
ENCODING 43
SWIDTH 586 0
DWIDTH 9 0
BBX 7 7 2 2
BITMAP
30
30
30
fe
30
30
30
ENDCHAR
STARTCHAR comma
ENCODING 44
SWIDTH 586 0
DWIDTH 9 0
BBX 4 4 2 -1
BITMAP
30
60
60
c0
ENDCHAR
STARTCHAR minus
ENCODING 45
SWIDTH 586 0
DWIDTH 9 0
BBX 7 1 2 5
BITMAP
fe
ENDCHAR
STARTCHAR period
ENCODING 46
SWIDTH 586 0
DWIDTH 9 0
BBX 3 3 3 1
BITMAP
60
e0
40
ENDCHAR
STARTCHAR slash
ENCODING 47
SWIDTH 586 0
DWIDTH 9 0
BBX 9 13 1 -1
BITMAP
0080
0100
0300
0200
0600
0c00
0800
1800
3000
2000
6000
4000
8000
ENDCHAR
STARTCHAR zero
ENCODING 48
SWIDTH 586 0
DWIDTH 9 0
BBX 7 9 2 1
BITMAP
1c
26
66
46
c6
c4
cc
c8
70
ENDCHAR
STARTCHAR one
ENCODING 49
SWIDTH 586 0
DWIDTH 9 0
BBX 7 9 1 1
BITMAP
1c
24
0c
0c
08
18
18
18
fe
ENDCHAR
STARTCHAR two
ENCODING 50
SWIDTH 586 0
DWIDTH 9 0
BBX 8 9 1 1
BITMAP
3e
23
03
02
06
18
36
66
fc
ENDCHAR
STARTCHAR three
ENCODING 51
SWIDTH 586 0
DWIDTH 9 0
BBX 8 9 1 1
BITMAP
1e
23
03
0e
1c
06
06
4c
78
ENDCHAR
STARTCHAR four
ENCODING 52
SWIDTH 586 0
DWIDTH 9 0
BBX 7 9 1 1
BITMAP
06
0e
14
2c
4c
fe
08
08
3c
ENDCHAR
STARTCHAR five
ENCODING 53
SWIDTH 586 0
DWIDTH 9 0
BBX 8 9 1 1
BITMAP
3f
20
20
3c
26
06
06
4c
f8
ENDCHAR
STARTCHAR six
ENCODING 54
SWIDTH 586 0
DWIDTH 9 0
BBX 7 9 2 1
BITMAP
0e
30
40
78
cc
cc
cc
c8
70
ENDCHAR
STARTCHAR seven
ENCODING 55
SWIDTH 586 0
DWIDTH 9 0
BBX 7 9 3 1
BITMAP
fe
c4
0c
08
18
30
20
60
40
ENDCHAR
STARTCHAR eight
ENCODING 56
SWIDTH 586 0
DWIDTH 9 0
BBX 7 9 2 1
BITMAP
3c
66
66
6c
38
cc
cc
c8
70
ENDCHAR
STARTCHAR nine
ENCODING 57
SWIDTH 586 0
DWIDTH 9 0
BBX 8 9 1 1
BITMAP
1e
33
63
63
3f
06
0e
1c
f0
ENDCHAR
STARTCHAR colon
ENCODING 58
SWIDTH 586 0
DWIDTH 9 0
BBX 4 6 3 1
BITMAP
30
70
20
60
e0
40
ENDCHAR
STARTCHAR semicolon
ENCODING 59
SWIDTH 586 0
DWIDTH 9 0
BBX 5 9 2 -1
BITMAP
18
38
10
00
30
30
60
40
c0
ENDCHAR
STARTCHAR less
ENCODING 60
SWIDTH 586 0
DWIDTH 9 0
BBX 8 7 1 2
BITMAP
03
0e
38
e0
38
0e
01
ENDCHAR
STARTCHAR equal
ENCODING 61
SWIDTH 586 0
DWIDTH 9 0
BBX 7 3 2 4
BITMAP
fe
00
fe
ENDCHAR
STARTCHAR greater
ENCODING 62
SWIDTH 586 0
DWIDTH 9 0
BBX 8 7 2 2
BITMAP
c0
70
0e
06
18
e0
80
ENDCHAR
STARTCHAR question
ENCODING 63
SWIDTH 586 0
DWIDTH 9 0
BBX 6 9 3 1
BITMAP
78
cc
cc
0c
38
60
40
60
e0
ENDCHAR
STARTCHAR at
ENCODING 64
SWIDTH 586 0
DWIDTH 9 0
BBX 9 9 1 1
BITMAP
1f00
3180
6f80
5580
f580
fd00
d600
c200
7c00
ENDCHAR
STARTCHAR A
ENCODING 65
SWIDTH 586 0
DWIDTH 9 0
BBX 9 9 0 1
BITMAP
1e00
0e00
0e00
1a00
1200
3f00
2100
6100
f780
ENDCHAR
STARTCHAR B
ENCODING 66
SWIDTH 586 0
DWIDTH 9 0
BBX 9 9 0 1
BITMAP
3f00
1180
1180
1180
1f00
3180
2180
2180
7e00
ENDCHAR
STARTCHAR C
ENCODING 67
SWIDTH 586 0
DWIDTH 9 0
BBX 9 9 1 1
BITMAP
0e80
3180
6100
c100
c000
c000
c000
6300
3e00
ENDCHAR
STARTCHAR D
ENCODING 68
SWIDTH 586 0
DWIDTH 9 0
BBX 10 9 0 1
BITMAP
3f80
11c0
10c0
10c0
30c0
2080
2180
2300
fe00
ENDCHAR
STARTCHAR E
ENCODING 69
SWIDTH 586 0
DWIDTH 9 0
BBX 9 9 1 1
BITMAP
3f80
1180
1180
3500
3c00
2500
2100
2100
fe00
ENDCHAR
STARTCHAR F
ENCODING 70
SWIDTH 586 0
DWIDTH 9 0
BBX 9 9 1 1
BITMAP
3f80
1180
3180
3700
3c00
2400
2000
2000
f000
ENDCHAR
STARTCHAR G
ENCODING 71
SWIDTH 586 0
DWIDTH 9 0
BBX 9 9 1 1
BITMAP
1e80
3380
6180
c180
c000
cf00
c300
6300
3c00
ENDCHAR
STARTCHAR H
ENCODING 72
SWIDTH 586 0
DWIDTH 9 0
BBX 10 9 0 1
BITMAP
3bc0
1180
3100
3100
3f00
2300
2300
6200
f700
ENDCHAR
STARTCHAR I
ENCODING 73
SWIDTH 586 0
DWIDTH 9 0
BBX 8 9 1 1
BITMAP
3f
08
08
18
18
10
10
10
fc
ENDCHAR
STARTCHAR J
ENCODING 74
SWIDTH 586 0
DWIDTH 9 0
BBX 10 9 1 1
BITMAP
0fc0
0300
0300
0200
0200
c600
c600
c400
7c00
ENDCHAR
STARTCHAR K
ENCODING 75
SWIDTH 586 0
DWIDTH 9 0
BBX 10 9 0 1
BITMAP
3fc0
1100
1600
3c00
3c00
3400
2600
2200
f380
ENDCHAR
STARTCHAR L
ENCODING 76
SWIDTH 586 0
DWIDTH 9 0
BBX 9 9 0 1
BITMAP
3e00
1800
1000
1000
3000
3180
2180
2100
ff00
ENDCHAR
STARTCHAR M
ENCODING 77
SWIDTH 586 0
DWIDTH 9 0
BBX 11 9 0 1
BITMAP
38e0
39c0
39c0
2a80
2e80
2c80
6080
4180
f380
ENDCHAR
STARTCHAR N
ENCODING 78
SWIDTH 586 0
DWIDTH 9 0
BBX 11 9 0 1
BITMAP
39e0
38c0
3cc0
3c80
3480
2780
2780
6380
f300
ENDCHAR
STARTCHAR O
ENCODING 79
SWIDTH 586 0
DWIDTH 9 0
BBX 9 9 1 1
BITMAP
1e00
3300
6180
c180
c180
c180
c300
4600
3c00
ENDCHAR
STARTCHAR P
ENCODING 80
SWIDTH 586 0
DWIDTH 9 0
BBX 9 9 1 1
BITMAP
3f00
1180
1180
3180
3300
3e00
2000
2000
f800
ENDCHAR
STARTCHAR Q
ENCODING 81
SWIDTH 586 0
DWIDTH 9 0
BBX 9 11 1 -1
BITMAP
1e00
3300
6180
c180
c180
c180
c300
4600
3c00
7a00
4e00
ENDCHAR
STARTCHAR R
ENCODING 82
SWIDTH 586 0
DWIDTH 9 0
BBX 9 9 0 1
BITMAP
3f00
1180
1180
1180
1e00
3600
2200
2200
7380
ENDCHAR
STARTCHAR S
ENCODING 83
SWIDTH 586 0
DWIDTH 9 0
BBX 9 9 1 1
BITMAP
1f00
3300
6100
6000
3e00
0300
c300
c600
bc00
ENDCHAR
STARTCHAR T
ENCODING 84
SWIDTH 586 0
DWIDTH 9 0
BBX 9 9 1 1
BITMAP
7f80
4980
c980
9980
1800
1000
1000
1000
7c00
ENDCHAR
STARTCHAR U
ENCODING 85
SWIDTH 586 0
DWIDTH 9 0
BBX 9 9 2 1
BITMAP
f700
4200
4200
4200
c600
8400
c400
cc00
7000
ENDCHAR
STARTCHAR V
ENCODING 86
SWIDTH 586 0
DWIDTH 9 0
BBX 9 9 2 1
BITMAP
f780
4300
4200
6400
2400
2800
2800
3000
3000
ENDCHAR
STARTCHAR W
ENCODING 87
SWIDTH 586 0
DWIDTH 9 0
BBX 9 9 2 1
BITMAP
e380
4100
4b00
5a00
aa00
aa00
ec00
cc00
c400
ENDCHAR
STARTCHAR X
ENCODING 88
SWIDTH 586 0
DWIDTH 9 0
BBX 10 9 0 1
BITMAP
39c0
1900
0b00
0e00
0c00
1e00
3200
2300
f780
ENDCHAR
STARTCHAR Y
ENCODING 89
SWIDTH 586 0
DWIDTH 9 0
BBX 9 9 2 1
BITMAP
f780
6200
2600
2c00
3800
1000
1000
3000
f800
ENDCHAR
STARTCHAR Z
ENCODING 90
SWIDTH 586 0
DWIDTH 9 0
BBX 8 9 1 1
BITMAP
3f
26
64
6c
18
32
22
42
fe
ENDCHAR
STARTCHAR bracketleft
ENCODING 91
SWIDTH 586 0
DWIDTH 9 0
BBX 6 11 4 0
BITMAP
3c
30
30
20
60
60
40
40
40
c0
f0
ENDCHAR
STARTCHAR backslash
ENCODING 92
SWIDTH 586 0
DWIDTH 9 0
BBX 4 13 3 -1
BITMAP
80
c0
c0
40
40
40
60
20
20
20
30
10
10
ENDCHAR
STARTCHAR bracketright
ENCODING 93
SWIDTH 586 0
DWIDTH 9 0
BBX 6 11 1 0
BITMAP
3c
0c
08
08
08
18
18
10
30
30
f0
ENDCHAR
STARTCHAR asciicircum
ENCODING 94
SWIDTH 586 0
DWIDTH 9 0
BBX 7 7 2 3
BITMAP
38
28
28
6c
44
c6
c6
ENDCHAR
STARTCHAR underscore
ENCODING 95
SWIDTH 586 0
DWIDTH 9 0
BBX 10 1 -1 -1
BITMAP
ffc0
ENDCHAR
STARTCHAR quoteleft
ENCODING 96
SWIDTH 586 0
DWIDTH 9 0
BBX 4 4 3 6
BITMAP
30
60
60
c0
ENDCHAR
STARTCHAR a
ENCODING 97
SWIDTH 586 0
DWIDTH 9 0
BBX 8 7 1 1
BITMAP
3c
26
02
7e
c4
cc
76
ENDCHAR
STARTCHAR b
ENCODING 98
SWIDTH 586 0
DWIDTH 9 0
BBX 9 9 0 1
BITMAP
3000
1000
1f00
3980
3180
2180
2180
3300
fe00
ENDCHAR
STARTCHAR c
ENCODING 99
SWIDTH 586 0
DWIDTH 9 0
BBX 8 7 1 1
BITMAP
1d
63
63
c0
c0
e3
7c
ENDCHAR
STARTCHAR d
ENCODING 100
SWIDTH 586 0
DWIDTH 9 0
BBX 9 9 1 1
BITMAP
0700
0100
1d00
6700
4300
c200
c200
c600
7f00
ENDCHAR
STARTCHAR e
ENCODING 101
SWIDTH 586 0
DWIDTH 9 0
BBX 8 7 1 1
BITMAP
1e
63
63
ff
c0
c6
3c
ENDCHAR
STARTCHAR f
ENCODING 102
SWIDTH 586 0
DWIDTH 9 0
BBX 9 9 1 1
BITMAP
0f00
1800
7e00
1000
3000
3000
3000
2000
fc00
ENDCHAR
STARTCHAR g
ENCODING 103
SWIDTH 586 0
DWIDTH 9 0
BBX 9 9 1 -1
BITMAP
3f80
6600
c200
c200
c600
ce00
7c00
0400
7800
ENDCHAR
STARTCHAR h
ENCODING 104
SWIDTH 586 0
DWIDTH 9 0
BBX 9 9 0 1
BITMAP
3800
1000
1700
1980
1180
3180
2100
2100
f780
ENDCHAR
STARTCHAR i
ENCODING 105
SWIDTH 586 0
DWIDTH 9 0
BBX 7 11 1 1
BITMAP
0c
0c
00
00
3c
08
08
18
18
18
fe
ENDCHAR
STARTCHAR j
ENCODING 106
SWIDTH 586 0
DWIDTH 9 0
BBX 8 13 0 -1
BITMAP
03
03
00
00
3e
02
02
06
06
04
0c
0c
f0
ENDCHAR
STARTCHAR k
ENCODING 107
SWIDTH 586 0
DWIDTH 9 0
BBX 9 9 0 1
BITMAP
3000
1000
1780
3600
2c00
3800
2c00
2600
e700
ENDCHAR
STARTCHAR l
ENCODING 108
SWIDTH 586 0
DWIDTH 9 0
BBX 7 9 1 1
BITMAP
3c
0c
0c
08
08
18
18
18
fe
ENDCHAR
STARTCHAR m
ENCODING 109
SWIDTH 586 0
DWIDTH 9 0
BBX 10 7 0 1
BITMAP
6f80
36c0
24c0
24c0
6d80
4d80
edc0
ENDCHAR
STARTCHAR n
ENCODING 110
SWIDTH 586 0
DWIDTH 9 0
BBX 9 7 0 1
BITMAP
3700
1980
3180
3180
2100
2300
f780
ENDCHAR
STARTCHAR o
ENCODING 111
SWIDTH 586 0
DWIDTH 9 0
BBX 8 7 1 1
BITMAP
1e
63
43
c3
c3
c6
7c
ENDCHAR
STARTCHAR p
ENCODING 112
SWIDTH 586 0
DWIDTH 9 0
BBX 9 9 0 -1
BITMAP
7f00
3980
3180
2180
2180
3300
7e00
4000
f000
ENDCHAR
STARTCHAR q
ENCODING 113
SWIDTH 586 0
DWIDTH 9 0
BBX 9 9 1 -1
BITMAP
1d80
6700
c200
c200
c200
c600
7e00
0400
1e00
ENDCHAR
STARTCHAR r
ENCODING 114
SWIDTH 586 0
DWIDTH 9 0
BBX 9 7 1 1
BITMAP
7f00
1d80
1800
1000
3000
3000
fc00
ENDCHAR
STARTCHAR s
ENCODING 115
SWIDTH 586 0
DWIDTH 9 0
BBX 8 7 1 1
BITMAP
1d
63
63
3e
c3
c7
bc
ENDCHAR
STARTCHAR t
ENCODING 116
SWIDTH 586 0
DWIDTH 9 0
BBX 6 9 2 1
BITMAP
20
20
60
fc
60
40
c0
c4
78
ENDCHAR
STARTCHAR u
ENCODING 117
SWIDTH 586 0
DWIDTH 9 0
BBX 8 7 1 1
BITMAP
67
22
22
42
46
6e
3f
ENDCHAR
STARTCHAR v
ENCODING 118
SWIDTH 586 0
DWIDTH 9 0
BBX 9 7 1 1
BITMAP
f780
6200
2600
2400
2800
3800
1000
ENDCHAR
STARTCHAR w
ENCODING 119
SWIDTH 586 0
DWIDTH 9 0
BBX 9 7 1 1
BITMAP
e380
4900
5a00
5a00
6a00
6c00
6400
ENDCHAR
STARTCHAR x
ENCODING 120
SWIDTH 586 0
DWIDTH 9 0
BBX 10 7 0 1
BITMAP
3bc0
1b00
0c00
0e00
1e00
3300
f780
ENDCHAR
STARTCHAR y
ENCODING 121
SWIDTH 586 0
DWIDTH 9 0
BBX 9 9 1 -1
BITMAP
7780
6200
6200
4200
6600
6e00
3c00
0400
7800
ENDCHAR
STARTCHAR z
ENCODING 122
SWIDTH 586 0
DWIDTH 9 0
BBX 8 7 1 1
BITMAP
3f
66
4c
18
32
66
fe
ENDCHAR
STARTCHAR braceleft
ENCODING 123
SWIDTH 586 0
DWIDTH 9 0
BBX 5 11 4 0
BITMAP
38
70
60
60
60
c0
60
40
c0
c0
e0
ENDCHAR
STARTCHAR bar
ENCODING 124
SWIDTH 586 0
DWIDTH 9 0
BBX 2 13 4 -2
BITMAP
c0
c0
c0
c0
c0
c0
c0
c0
c0
c0
c0
c0
c0
ENDCHAR
STARTCHAR braceright
ENCODING 125
SWIDTH 586 0
DWIDTH 9 0
BBX 6 11 1 0
BITMAP
38
0c
1c
18
18
1c
38
30
30
30
60
ENDCHAR
STARTCHAR asciitilde
ENCODING 126
SWIDTH 586 0
DWIDTH 9 0
BBX 7 3 2 4
BITMAP
32
7e
4c
ENDCHAR
STARTCHAR space
ENCODING 160
SWIDTH 586 0
DWIDTH 9 0
BBX 0 0 0 1
BITMAP
ENDCHAR
STARTCHAR Aogonek
ENCODING 161
SWIDTH 586 0
DWIDTH 9 0
BBX 9 11 0 -1
BITMAP
1e00
0600
0e00
0900
1100
3f00
2100
6100
f780
0700
0700
ENDCHAR
STARTCHAR breve
ENCODING 162
SWIDTH 586 0
DWIDTH 9 0
BBX 5 2 4 9
BITMAP
88
70
ENDCHAR
STARTCHAR Lslash
ENCODING 163
SWIDTH 586 0
DWIDTH 9 0
BBX 9 9 0 1
BITMAP
3e00
1800
1200
1e00
3800
7180
2180
2100
ff00
ENDCHAR
STARTCHAR currency
ENCODING 164
SWIDTH 586 0
DWIDTH 9 0
BBX 7 7 2 2
BITMAP
82
fe
c6
c6
c6
fe
82
ENDCHAR
STARTCHAR Lcaron
ENCODING 165
SWIDTH 586 0
DWIDTH 9 0
BBX 11 9 0 1
BITMAP
3ec0
1800
1000
1000
3000
3180
2180
2100
ff00
ENDCHAR
STARTCHAR Sacute
ENCODING 166
SWIDTH 586 0
DWIDTH 9 0
BBX 9 11 1 1
BITMAP
0600
0000
1f00
3300
6100
6000
3e00
0300
c300
c600
bc00
ENDCHAR
STARTCHAR section
ENCODING 167
SWIDTH 586 0
DWIDTH 9 0
BBX 8 10 1 0
BITMAP
0f
19
1b
3c
6e
77
3f
0e
4c
78
ENDCHAR
STARTCHAR dieresis
ENCODING 168
SWIDTH 586 0
DWIDTH 9 0
BBX 4 2 4 9
BITMAP
f0
f0
ENDCHAR
STARTCHAR Scaron
ENCODING 169
SWIDTH 586 0
DWIDTH 9 0
BBX 9 12 1 1
BITMAP
0900
0600
0000
1f00
3300
6100
6000
3e00
0300
c300
c600
bc00
ENDCHAR
STARTCHAR Scedilla
ENCODING 170
SWIDTH 586 0
DWIDTH 9 0
BBX 9 12 1 -2
BITMAP
1f00
3300
6100
6000
3e00
0300
c300
c600
bc00
1800
2800
7000
ENDCHAR
STARTCHAR Tcaron
ENCODING 171
SWIDTH 586 0
DWIDTH 9 0
BBX 9 12 1 1
BITMAP
0900
0600
0000
7f80
4980
c980
9980
1800
1000
1000
1000
7c00
ENDCHAR
STARTCHAR Zacute
ENCODING 172
SWIDTH 586 0
DWIDTH 9 0
BBX 8 11 1 1
BITMAP
06
00
3f
26
64
6c
18
32
22
42
fe
ENDCHAR
STARTCHAR hyphen
ENCODING 173
SWIDTH 586 0
DWIDTH 9 0
BBX 3 1 4 5
BITMAP
e0
ENDCHAR
STARTCHAR Zcaron
ENCODING 174
SWIDTH 586 0
DWIDTH 9 0
BBX 8 12 1 1
BITMAP
09
06
00
3f
26
64
6c
18
32
22
42
fe
ENDCHAR
STARTCHAR Zdotaccent
ENCODING 175
SWIDTH 586 0
DWIDTH 9 0
BBX 8 12 1 1
BITMAP
02
06
00
3f
26
64
6c
18
32
22
42
fe
ENDCHAR
STARTCHAR degree
ENCODING 176
SWIDTH 586 0
DWIDTH 9 0
BBX 5 4 3 6
BITMAP
70
d8
d8
70
ENDCHAR
STARTCHAR aogonek
ENCODING 177
SWIDTH 586 0
DWIDTH 9 0
BBX 8 9 1 -1
BITMAP
3c
26
02
7e
c4
cc
76
1c
1c
ENDCHAR
STARTCHAR ogonek
ENCODING 178
SWIDTH 586 0
DWIDTH 9 0
BBX 4 2 2 -1
BITMAP
60
e0
ENDCHAR
STARTCHAR lslash
ENCODING 179
SWIDTH 586 0
DWIDTH 9 0
BBX 7 9 1 1
BITMAP
38
08
0a
0c
30
70
10
10
fc
ENDCHAR
STARTCHAR acute
ENCODING 180
SWIDTH 586 0
DWIDTH 9 0
BBX 4 1 5 9
BITMAP
60
ENDCHAR
STARTCHAR lcaron
ENCODING 181
SWIDTH 586 0
DWIDTH 9 0
BBX 10 9 1 1
BITMAP
3d80
0c00
0c00
0800
0800
1800
1800
1800
fe00
ENDCHAR
STARTCHAR sacute
ENCODING 182
SWIDTH 586 0
DWIDTH 9 0
BBX 8 9 1 1
BITMAP
06
00
1d
63
63
3e
c3
c7
bc
ENDCHAR
STARTCHAR caron
ENCODING 183
SWIDTH 586 0
DWIDTH 9 0
BBX 4 2 4 9
BITMAP
90
60
ENDCHAR
STARTCHAR cedilla
ENCODING 184
SWIDTH 586 0
DWIDTH 9 0
BBX 4 4 2 -2
BITMAP
20
30
70
e0
ENDCHAR
STARTCHAR scaron
ENCODING 185
SWIDTH 586 0
DWIDTH 9 0
BBX 8 10 1 1
BITMAP
12
0c
00
1d
63
63
3e
c3
c7
bc
ENDCHAR
STARTCHAR scedilla
ENCODING 186
SWIDTH 586 0
DWIDTH 9 0
BBX 8 10 1 -2
BITMAP
3d
63
63
3e
c3
c7
fc
18
38
70
ENDCHAR
STARTCHAR tcaron
ENCODING 187
SWIDTH 586 0
DWIDTH 9 0
BBX 8 9 2 1
BITMAP
26
20
60
fc
60
40
c0
c4
78
ENDCHAR
STARTCHAR zacute
ENCODING 188
SWIDTH 586 0
DWIDTH 9 0
BBX 8 9 1 1
BITMAP
06
00
3f
66
4c
18
32
66
fe
ENDCHAR
STARTCHAR hungarumlaut
ENCODING 189
SWIDTH 586 0
DWIDTH 9 0
BBX 6 2 4 8
BITMAP
d8
90
ENDCHAR
STARTCHAR zcaron
ENCODING 190
SWIDTH 586 0
DWIDTH 9 0
BBX 8 10 1 1
BITMAP
12
0c
00
3f
66
4c
18
32
66
fe
ENDCHAR
STARTCHAR zdotaccent
ENCODING 191
SWIDTH 586 0
DWIDTH 9 0
BBX 8 10 1 1
BITMAP
04
0c
00
3f
66
4c
18
32
66
fe
ENDCHAR
STARTCHAR Racute
ENCODING 192
SWIDTH 586 0
DWIDTH 9 0
BBX 9 11 0 1
BITMAP
0300
0000
3f00
1180
1180
1180
1e00
3600
2200
2200
7380
ENDCHAR
STARTCHAR Aacute
ENCODING 193
SWIDTH 586 0
DWIDTH 9 0
BBX 9 11 0 1
BITMAP
0300
0000
1e00
0e00
0e00
1a00
1200
3f00
2100
6100
f780
ENDCHAR
STARTCHAR Acircumflex
ENCODING 194
SWIDTH 586 0
DWIDTH 9 0
BBX 9 12 0 1
BITMAP
0600
0900
0000
1e00
0e00
0e00
1a00
1200
3f00
2100
6100
f780
ENDCHAR
STARTCHAR Abreve
ENCODING 195
SWIDTH 586 0
DWIDTH 9 0
BBX 9 12 0 1
BITMAP
0880
0700
0000
1e00
0e00
0e00
1a00
1200
3f00
2100
6100
f780
ENDCHAR
STARTCHAR Adieresis
ENCODING 196
SWIDTH 586 0
DWIDTH 9 0
BBX 9 12 0 1
BITMAP
0780
0780
0000
1e00
0e00
0e00
1a00
1200
3f00
2100
6100
f780
ENDCHAR
STARTCHAR Lacute
ENCODING 197
SWIDTH 586 0
DWIDTH 9 0
BBX 9 11 0 1
BITMAP
0c00
0000
3e00
1800
1000
1000
3000
3180
2180
2100
ff00
ENDCHAR
STARTCHAR Cacute
ENCODING 198
SWIDTH 586 0
DWIDTH 9 0
BBX 9 11 1 1
BITMAP
0600
0000
0e80
3180
6100
c100
c000
c000
c000
6300
3e00
ENDCHAR
STARTCHAR Ccedilla
ENCODING 199
SWIDTH 586 0
DWIDTH 9 0
BBX 9 12 1 -2
BITMAP
0e80
3180
6100
4100
c000
c000
c000
6300
3e00
1c00
2c00
3800
ENDCHAR
STARTCHAR Ccaron
ENCODING 200
SWIDTH 586 0
DWIDTH 9 0
BBX 9 12 1 1
BITMAP
0900
0600
0000
0e80
3180
6100
c100
c000
c000
c000
6300
3e00
ENDCHAR
STARTCHAR Eacute
ENCODING 201
SWIDTH 586 0
DWIDTH 9 0
BBX 9 11 1 1
BITMAP
0600
0000
3f80
1180
1180
3500
3c00
2500
2100
2100
fe00
ENDCHAR
STARTCHAR Eogonek
ENCODING 202
SWIDTH 586 0
DWIDTH 9 0
BBX 9 11 1 -1
BITMAP
7f80
3180
3180
2300
3c00
2500
6300
6300
fe00
0c00
0c00
ENDCHAR
STARTCHAR Edieresis
ENCODING 203
SWIDTH 586 0
DWIDTH 9 0
BBX 9 12 1 1
BITMAP
0f00
0f00
0000
3f80
1180
1180
3500
3c00
2500
2100
2100
fe00
ENDCHAR
STARTCHAR Ecaron
ENCODING 204
SWIDTH 586 0
DWIDTH 9 0
BBX 9 12 1 1
BITMAP
0900
0600
0000
3f80
1180
1180
3500
3c00
2500
2100
2100
fe00
ENDCHAR
STARTCHAR Iacute
ENCODING 205
SWIDTH 586 0
DWIDTH 9 0
BBX 8 11 1 1
BITMAP
06
00
3f
08
08
18
18
10
10
10
fc
ENDCHAR
STARTCHAR Icircumflex
ENCODING 206
SWIDTH 586 0
DWIDTH 9 0
BBX 8 12 1 1
BITMAP
06
09
00
3f
08
08
18
18
10
10
10
fc
ENDCHAR
STARTCHAR Dcaron
ENCODING 207
SWIDTH 586 0
DWIDTH 9 0
BBX 10 12 0 1
BITMAP
0900
0600
0000
3f80
11c0
10c0
10c0
30c0
2080
2180
2300
fe00
ENDCHAR
STARTCHAR Eth
ENCODING 208
SWIDTH 586 0
DWIDTH 9 0
BBX 10 9 0 1
BITMAP
3f80
11c0
10c0
10c0
7cc0
2080
2180
2300
fe00
ENDCHAR
STARTCHAR Nacute
ENCODING 209
SWIDTH 586 0
DWIDTH 9 0
BBX 11 11 0 1
BITMAP
0300
0000
39e0
38c0
3cc0
3c80
3480
2780
2780
6380
f300
ENDCHAR
STARTCHAR Ncaron
ENCODING 210
SWIDTH 586 0
DWIDTH 9 0
BBX 11 12 0 1
BITMAP
0480
0300
0000
39e0
38c0
3cc0
3c80
3480
2780
2780
6380
f300
ENDCHAR
STARTCHAR Oacute
ENCODING 211
SWIDTH 586 0
DWIDTH 9 0
BBX 9 11 1 1
BITMAP
0600
0000
1e00
3300
6180
c180
c180
c180
c300
4600
3c00
ENDCHAR
STARTCHAR Ocircumflex
ENCODING 212
SWIDTH 586 0
DWIDTH 9 0
BBX 9 12 1 1
BITMAP
0600
0900
0000
1e00
3300
6180
c180
c180
c180
c300
4600
3c00
ENDCHAR
STARTCHAR Ohungarumlaut
ENCODING 213
SWIDTH 586 0
DWIDTH 9 0
BBX 9 11 1 1
BITMAP
1b00
1200
1e00
3300
6180
c180
c180
c180
c300
4600
3c00
ENDCHAR
STARTCHAR Odieresis
ENCODING 214
SWIDTH 586 0
DWIDTH 9 0
BBX 9 12 1 1
BITMAP
0f00
0f00
0000
1e00
3300
6180
c180
c180
c180
c300
4600
3c00
ENDCHAR
STARTCHAR multiply
ENCODING 215
SWIDTH 586 0
DWIDTH 9 0
BBX 6 6 2 3
BITMAP
84
cc
78
30
78
cc
ENDCHAR
STARTCHAR Rcaron
ENCODING 216
SWIDTH 586 0
DWIDTH 9 0
BBX 9 12 0 1
BITMAP
0480
0300
0000
3f00
1180
1180
1180
1e00
3600
2200
2200
7380
ENDCHAR
STARTCHAR Uring
ENCODING 217
SWIDTH 586 0
DWIDTH 9 0
BBX 9 12 2 1
BITMAP
1c00
1c00
0000
f700
4200
4200
4200
c600
8400
c400
cc00
7000
ENDCHAR
STARTCHAR Uacute
ENCODING 218
SWIDTH 586 0
DWIDTH 9 0
BBX 9 11 2 1
BITMAP
0c00
0000
f700
4200
4200
4200
c600
8400
c400
cc00
7000
ENDCHAR
STARTCHAR Uhungarumlaut
ENCODING 219
SWIDTH 586 0
DWIDTH 9 0
BBX 9 11 2 1
BITMAP
3600
2400
f700
4200
4200
4200
c600
8400
c400
cc00
7000
ENDCHAR
STARTCHAR Udieresis
ENCODING 220
SWIDTH 586 0
DWIDTH 9 0
BBX 9 12 2 1
BITMAP
1e00
1e00
0000
f700
4200
4200
4200
c600
8400
c400
cc00
7000
ENDCHAR
STARTCHAR Yacute
ENCODING 221
SWIDTH 586 0
DWIDTH 9 0
BBX 9 11 2 1
BITMAP
0c00
0000
f780
6200
2600
2c00
3800
1000
1000
3000
f800
ENDCHAR
STARTCHAR Tcedilla
ENCODING 222
SWIDTH 586 0
DWIDTH 9 0
BBX 9 12 1 -2
BITMAP
7f80
4980
c980
9980
1800
1000
1000
1000
7c00
1800
3800
7000
ENDCHAR
STARTCHAR germandbls
ENCODING 223
SWIDTH 586 0
DWIDTH 9 0
BBX 8 10 1 1
BITMAP
0e
13
33
26
2c
26
63
43
46
dc
ENDCHAR
STARTCHAR racute
ENCODING 224
SWIDTH 586 0
DWIDTH 9 0
BBX 9 9 1 1
BITMAP
0600
0000
7f00
1d80
1800
1000
3000
3000
fc00
ENDCHAR
STARTCHAR aacute
ENCODING 225
SWIDTH 586 0
DWIDTH 9 0
BBX 8 9 1 1
BITMAP
06
00
3c
26
02
7e
c4
cc
76
ENDCHAR
STARTCHAR acircumflex
ENCODING 226
SWIDTH 586 0
DWIDTH 9 0
BBX 8 10 1 1
BITMAP
0c
12
00
3c
26
02
7e
c4
cc
76
ENDCHAR
STARTCHAR abreve
ENCODING 227
SWIDTH 586 0
DWIDTH 9 0
BBX 8 10 1 1
BITMAP
11
0e
00
3c
26
02
7e
c4
cc
76
ENDCHAR
STARTCHAR adieresis
ENCODING 228
SWIDTH 586 0
DWIDTH 9 0
BBX 8 10 1 1
BITMAP
1e
1e
00
3c
26
02
7e
c4
cc
76
ENDCHAR
STARTCHAR lacute
ENCODING 229
SWIDTH 586 0
DWIDTH 9 0
BBX 8 12 1 1
BITMAP
06
00
00
3c
0c
0c
08
08
18
18
18
fe
ENDCHAR
STARTCHAR cacute
ENCODING 230
SWIDTH 586 0
DWIDTH 9 0
BBX 8 9 1 1
BITMAP
06
00
1d
63
63
c0
c0
e3
7c
ENDCHAR
STARTCHAR ccedilla
ENCODING 231
SWIDTH 586 0
DWIDTH 9 0
BBX 8 10 1 -2
BITMAP
1d
63
e3
c0
c0
e7
7c
18
38
78
ENDCHAR
STARTCHAR ccaron
ENCODING 232
SWIDTH 586 0
DWIDTH 9 0
BBX 8 10 1 1
BITMAP
12
0c
00
1d
63
63
c0
c0
e3
7c
ENDCHAR
STARTCHAR eacute
ENCODING 233
SWIDTH 586 0
DWIDTH 9 0
BBX 8 9 1 1
BITMAP
06
00
1e
63
63
ff
c0
c6
3c
ENDCHAR
STARTCHAR eogonek
ENCODING 234
SWIDTH 586 0
DWIDTH 9 0
BBX 8 9 1 -1
BITMAP
1e
63
63
ff
c0
c2
3e
30
38
ENDCHAR
STARTCHAR edieresis
ENCODING 235
SWIDTH 586 0
DWIDTH 9 0
BBX 8 10 1 1
BITMAP
1e
1e
00
1e
63
63
ff
c0
c6
3c
ENDCHAR
STARTCHAR ecaron
ENCODING 236
SWIDTH 586 0
DWIDTH 9 0
BBX 8 10 1 1
BITMAP
12
0c
00
1e
63
63
ff
c0
c6
3c
ENDCHAR
STARTCHAR iacute
ENCODING 237
SWIDTH 586 0
DWIDTH 9 0
BBX 8 9 1 1
BITMAP
06
00
3c
08
08
18
18
18
fe
ENDCHAR
STARTCHAR icircumflex
ENCODING 238
SWIDTH 586 0
DWIDTH 9 0
BBX 7 10 1 1
BITMAP
0c
12
00
3c
08
08
18
18
18
fe
ENDCHAR
STARTCHAR dcaron
ENCODING 239
SWIDTH 586 0
DWIDTH 9 0
BBX 12 9 1 1
BITMAP
0760
0100
1d00
6700
4300
c200
c200
c600
7f00
ENDCHAR
STARTCHAR dbar
ENCODING 240
SWIDTH 586 0
DWIDTH 9 0
BBX 9 9 1 1
BITMAP
0700
1f80
0100
3f00
6200
c200
c600
c600
7f00
ENDCHAR
STARTCHAR nacute
ENCODING 241
SWIDTH 586 0
DWIDTH 9 0
BBX 9 9 0 1
BITMAP
0300
0000
3700
1980
3180
3180
2100
2300
f780
ENDCHAR
STARTCHAR ncaron
ENCODING 242
SWIDTH 586 0
DWIDTH 9 0
BBX 9 10 0 1
BITMAP
0900
0600
0000
3700
1980
3180
3180
2100
2300
f780
ENDCHAR
STARTCHAR oacute
ENCODING 243
SWIDTH 586 0
DWIDTH 9 0
BBX 8 9 1 1
BITMAP
06
00
1e
63
43
c3
c3
c6
7c
ENDCHAR
STARTCHAR ocircumflex
ENCODING 244
SWIDTH 586 0
DWIDTH 9 0
BBX 8 10 1 1
BITMAP
0c
12
00
1e
63
43
c3
c3
c6
7c
ENDCHAR
STARTCHAR ohungarumlaut
ENCODING 245
SWIDTH 586 0
DWIDTH 9 0
BBX 9 9 1 1
BITMAP
1b00
1200
1e00
6300
4300
c300
c300
c600
7c00
ENDCHAR
STARTCHAR odieresis
ENCODING 246
SWIDTH 586 0
DWIDTH 9 0
BBX 8 10 1 1
BITMAP
1e
1e
00
1e
63
43
c3
c3
c6
7c
ENDCHAR
STARTCHAR divide
ENCODING 247
SWIDTH 586 0
DWIDTH 9 0
BBX 7 7 2 2
BITMAP
30
30
00
fe
00
30
30
ENDCHAR
STARTCHAR rcaron
ENCODING 248
SWIDTH 586 0
DWIDTH 9 0
BBX 9 10 1 1
BITMAP
1200
0c00
0000
7f00
1d80
1800
1000
3000
3000
fc00
ENDCHAR
STARTCHAR uring
ENCODING 249
SWIDTH 586 0
DWIDTH 9 0
BBX 8 10 1 1
BITMAP
1e
1c
00
67
22
22
42
46
6e
3f
ENDCHAR
STARTCHAR uacute
ENCODING 250
SWIDTH 586 0
DWIDTH 9 0
BBX 8 9 1 1
BITMAP
06
00
67
22
22
42
46
6e
3f
ENDCHAR
STARTCHAR uhungarumlaut
ENCODING 251
SWIDTH 586 0
DWIDTH 9 0
BBX 9 9 1 1
BITMAP
1b00
1200
6700
2200
2200
4200
4600
6e00
3f00
ENDCHAR
STARTCHAR udieresis
ENCODING 252
SWIDTH 586 0
DWIDTH 9 0
BBX 8 10 1 1
BITMAP
1e
1e
00
67
22
22
42
46
6e
3f
ENDCHAR
STARTCHAR yacute
ENCODING 253
SWIDTH 586 0
DWIDTH 9 0
BBX 9 11 1 -1
BITMAP
0600
0000
7780
6200
6200
4200
6600
6e00
3c00
0400
7800
ENDCHAR
STARTCHAR tcedilla
ENCODING 254
SWIDTH 586 0
DWIDTH 9 0
BBX 6 12 2 -2
BITMAP
30
30
60
fc
60
40
c0
c4
7c
38
58
f0
ENDCHAR
STARTCHAR dotaccent
ENCODING 255
SWIDTH 586 0
DWIDTH 9 0
BBX 2 2 5 9
BITMAP
40
c0
ENDCHAR
ENDFONT
